<?xml version="1.0" encoding="UTF-8"?>
<svg id="_圖層_1" data-name="圖層 1" xmlns="http://www.w3.org/2000/svg" viewBox="0 0 1440.58 2247.94">
  <defs>
    <style>
      .cls-1 {
        fill: none;
      }

      .cls-2 {
        fill: #052f2a;
      }

      .cls-3 {
        fill: #fff9f7;
      }
    </style>
  </defs>
  <g>
    <path class="cls-3" d="M572.7,38.82s20.22-21.38,64.04-9.93c0,0,6.48-26.88,43.53-28.89,0,0-32.11,6.05-34.69,43.58,0,0-46.32-19.39-72.87-4.76Z"/>
    <path class="cls-3" d="M600.84,94.09s14.39-15.22,45.6-7.07c0,0,4.61-19.14,30.99-20.57,0,0-22.86,4.31-24.7,31.03,0,0-32.98-13.81-51.88-3.39Z"/>
    <path class="cls-3" d="M708.42,25.04s10.1-10.68,32-4.96c0,0,3.24-13.43,21.75-14.43,0,0-16.04,3.02-17.34,21.78,0,0-23.14-9.69-36.41-2.38Z"/>
  </g>
  <path class="cls-2" d="M175.25,510c1.13-.14,2.24-.28,3.32-.41-1.08,.13-2.19,.27-3.32,.41Z"/>
  <path class="cls-2" d="M150.32,513.05c3.51-.42,6.92-.84,10.2-1.24-3.29,.4-6.69,.82-10.2,1.24Z"/>
  <path class="cls-2" d="M160.52,511.81c1.31-.16,2.61-.32,3.88-.47-1.27,.16-2.57,.31-3.88,.47Z"/>
  <path class="cls-2" d="M178.58,509.59c1.08-.13,2.14-.27,3.16-.39-1.03,.13-2.08,.26-3.16,.39Z"/>
  <path class="cls-2" d="M143.9,513.82c1.45-.17,2.88-.35,4.3-.52-1.42,.17-2.85,.34-4.3,.52Z"/>
  <path class="cls-2" d="M184.73,508.82c1.94-.24,3.75-.47,5.44-.68-1.69,.21-3.5,.44-5.44,.68Z"/>
  <path class="cls-2" d="M141.72,514.09c-51.91,6.22-120.52,13.95-141.72,13.95,21.19,0,89.8-7.73,141.72-13.95Z"/>
  <path class="cls-2" d="M772.45,613.69c-4.73,.09-9.47,.12-14.21,.08,4.74,.04,9.47,.01,14.21-.08Z"/>
  <path class="cls-2" d="M297.91,497.86c-19.39-.3-38.66,1.52-58.15,3.91,19.49-2.39,38.76-4.22,58.15-3.91Z"/>
  <path class="cls-2" d="M836.18,609.08c4.7-.57,9.4-1.19,14.1-1.85-4.7,.66-9.4,1.28-14.1,1.85Z"/>
  <path class="cls-2" d="M850.28,607.23c4.7-.66,9.39-1.37,14.07-2.11-4.69,.74-9.38,1.45-14.07,2.11Z"/>
  <path class="cls-2" d="M814.98,611.33c4.72-.43,9.43-.9,14.14-1.43-4.71,.53-9.42,1-14.14,1.43Z"/>
  <path class="cls-2" d="M212.58,505.3c4.56-.6,9.11-1.2,13.63-1.8-4.53,.59-9.07,1.2-13.63,1.8Z"/>
  <path class="cls-2" d="M203.42,506.48c3.06-.39,6.11-.78,9.15-1.18-3.04,.4-6.09,.79-9.15,1.18Z"/>
  <path class="cls-2" d="M307.2,498.17c2.77,.15,5.54,.34,8.31,.59-2.77-.25-5.54-.44-8.31-.59Z"/>
  <path class="cls-2" d="M779.55,613.51c7.1-.22,14.19-.58,21.27-1.06-7.08,.48-14.18,.84-21.27,1.06Z"/>
  <path class="cls-2" d="M226.21,503.5c4.53-.59,9.04-1.18,13.54-1.73-4.5,.55-9.01,1.14-13.54,1.73Z"/>
  <path class="cls-1" d="M1271.44,591.15c3.44,1.22,6.87,2.46,10.3,3.7-3.43-1.24-6.87-2.47-10.3-3.7Z"/>
  <path class="cls-1" d="M1317.7,608c3.41,1.25,6.82,2.5,10.23,3.74-3.41-1.24-6.82-2.49-10.23-3.74Z"/>
  <path class="cls-1" d="M1327.93,611.74c22.13,8.06,44.09,15.82,65.73,22.38-21.64-6.56-43.6-14.32-65.73-22.38Z"/>
  <path class="cls-1" d="M1393.66,634.12c3.33,1.01,6.65,1.99,9.97,2.94-3.32-.95-6.64-1.93-9.97-2.94Z"/>
  <path class="cls-1" d="M1073.05,555.75c3.69-.46,7.42-.85,11.18-1.15-3.77,.3-7.49,.69-11.18,1.15Z"/>
  <path class="cls-1" d="M1240.48,580.53c3.44,1.13,6.88,2.28,10.32,3.45-3.44-1.17-6.88-2.32-10.32-3.45Z"/>
  <path class="cls-1" d="M1214.68,572.48c6.88,2.02,13.76,4.15,20.64,6.36-6.88-2.22-13.76-4.35-20.64-6.36Z"/>
  <path class="cls-1" d="M1281.74,594.85c6.87,2.48,13.72,4.99,20.57,7.5-6.85-2.51-13.71-5.02-20.57-7.5Z"/>
  <path class="cls-1" d="M1255.96,585.74c5.16,1.77,10.32,3.58,15.47,5.42-5.16-1.83-10.31-3.64-15.47-5.42Z"/>
  <path class="cls-1" d="M1142.84,556.59c5.09,.68,10.2,1.47,15.31,2.37-5.11-.9-10.22-1.69-15.31-2.37Z"/>
  <path class="cls-1" d="M1188.93,565.5c5.14,1.27,10.29,2.62,15.44,4.04-5.15-1.42-10.3-2.77-15.44-4.04Z"/>
  <path class="cls-1" d="M1084.23,554.6c3.77-.3,7.57-.52,11.43-.65-3.85,.13-7.66,.35-11.43,.65Z"/>
  <path class="cls-1" d="M1302.31,602.35c5.14,1.89,10.26,3.77,15.38,5.65-5.12-1.88-10.25-3.76-15.38-5.65Z"/>
  <path class="cls-1" d="M1168.39,560.89c5.12,1.03,10.26,2.16,15.4,3.37-5.14-1.21-10.27-2.34-15.4-3.37Z"/>
  <path class="cls-1" d="M315.51,498.76c9.14,.81,18.32,2.19,27.59,4.3-9.27-2.11-18.46-3.49-27.59-4.3Z"/>
  <path class="cls-1" d="M297.91,497.86c3.09,.05,6.19,.15,9.29,.32-3.1-.16-6.2-.27-9.29-.32Z"/>
  <path class="cls-1" d="M544.46,578.54c8.93,2.57,17.94,5.01,27.02,7.32-9.08-2.32-18.09-4.76-27.02-7.32Z"/>
  <path class="cls-1" d="M640.22,600.83c18.39,3.34,36.72,6.15,54.76,8.42-18.04-2.27-36.38-5.08-54.76-8.42Z"/>
  <path class="cls-1" d="M571.48,585.87c22.69,5.79,45.76,10.79,68.74,14.96-22.98-4.18-46.05-9.17-68.74-14.96Z"/>
  <path class="cls-1" d="M1107.37,553.85c-3.95-.07-7.85-.03-11.71,.1,3.85-.13,7.76-.16,11.71-.1Z"/>
  <path class="cls-1" d="M1073.05,555.75c-47.98,5.98-90.02,24.45-138.86,35.64-13.87,3.18-27.8,6.14-41.79,8.81,13.99-2.67,27.93-5.64,41.79-8.81,48.83-11.19,90.88-29.66,138.86-35.64Z"/>
  <path class="cls-2" d="M1440.49,753.94v-109.28c-9.79-2.19-19.66-4.76-29.6-7.6-3.32-.95-6.64-1.93-9.97-2.94-21.64-6.56-43.6-14.32-65.73-22.38-3.41-1.24-6.81-2.49-10.23-3.74-5.12-1.88-10.25-3.76-15.38-5.65-6.85-2.51-13.71-5.02-20.57-7.5-3.43-1.24-6.87-2.47-10.3-3.7-5.15-1.83-10.31-3.64-15.47-5.42-1.72-.59-3.44-1.18-5.16-1.76-3.44-1.17-6.88-2.32-10.32-3.45-1.72-.57-3.44-1.12-5.16-1.68-6.88-2.22-13.76-4.35-20.64-6.36-3.44-1.01-6.87-1.99-10.31-2.94-5.15-1.42-10.3-2.77-15.44-4.04-1.71-.42-3.43-.84-5.14-1.24-5.14-1.21-10.27-2.34-15.4-3.37-3.42-.69-6.83-1.33-10.24-1.93-5.11-.9-10.22-1.69-15.31-2.37-11.89-1.58-23.72-2.54-35.47-2.73-3.95-.07-7.85-.03-11.71,.1-3.85,.13-7.66,.35-11.43,.65-3.77,.3-7.49,.69-11.18,1.15-47.98,5.98-90.02,24.45-138.86,35.64-13.87,3.18-27.8,6.14-41.79,8.81-9.33,1.78-18.68,3.43-28.05,4.92-4.69,.74-9.38,1.45-14.07,2.11-4.7,.66-9.4,1.28-14.1,1.85-2.35,.29-4.71,.56-7.06,.82-4.71,.52-9.42,1-14.14,1.43-4.72,.43-9.44,.8-14.16,1.12-7.08,.48-14.18,.84-21.27,1.06-2.37,.07-4.73,.13-7.1,.18-4.73,.09-9.47,.12-14.21,.08-16.58-.13-33.18-1.05-49.79-2.91-4.47-.5-8.96-1.03-13.48-1.6-18.04-2.27-36.38-5.08-54.76-8.42-22.98-4.18-46.05-9.17-68.74-14.96-9.08-2.32-18.09-4.76-27.02-7.32-17.85-5.13-35.35-10.76-52.26-16.88-48.67-17.59-94.13-44.76-144.52-57.51-1.53-.39-3.05-.75-4.58-1.1-9.27-2.11-18.46-3.49-27.59-4.3-2.77-.25-5.54-.44-8.31-.59-3.1-.16-6.2-.27-9.29-.32-19.39-.3-38.66,1.52-58.15,3.91-4.5,.55-9.01,1.14-13.54,1.73-4.53,.59-9.07,1.2-13.63,1.8-3.04,.4-6.09,.79-9.15,1.18-1.84,.23-6.5,.82-13.25,1.67-1.69,.21-3.5,.44-5.44,.68-.97,.12-1.97,.24-2.99,.37-1.03,.13-2.08,.26-3.16,.39-1.08,.13-2.19,.27-3.32,.41-3.4,.42-7.03,.87-10.85,1.34-1.27,.16-2.57,.31-3.88,.47-3.29,.4-6.69,.82-10.2,1.24-.7,.08-1.41,.17-2.12,.26-1.42,.17-2.85,.34-4.3,.52-.72,.09-1.45,.17-2.18,.26-51.91,6.22-120.52,13.95-141.72,13.95-1.19,0-2.24-.02-3.12-.07-.44-.03-.84-.06-1.2-.1-.9-.1-1.53-.23-1.88-.42-.07-.04-.13-.08-.18-.12-.09-.08-.14-.17-.14-.26,0,0-.04,106.63-.06,226.87h-.11v1494H1440.58V753.94h-.09Z"/>
</svg>