<?xml version="1.0" encoding="UTF-8"?>
<svg id="_圖層_3" data-name="圖層 3" xmlns="http://www.w3.org/2000/svg" viewBox="0 0 1442.07 2247.95">
  <defs>
    <style>
      .cls-1 {
        fill: #052f2a;
      }
    </style>
  </defs>
  <path class="cls-1" d="M1412.42,637.58c-3.32-.95-6.65-1.93-9.98-2.94-21.68-6.56-43.67-14.32-65.84-22.38-3.41-1.24-6.83-2.49-10.24-3.74-5.13-1.88-10.26-3.76-15.41-5.65-6.86-2.51-13.73-5.02-20.6-7.5-3.44-1.24-6.88-2.47-10.32-3.7-5.16-1.83-10.33-3.64-15.5-5.42-1.72-.59-3.45-1.18-5.17-1.76-3.45-1.17-6.89-2.32-10.34-3.45-1.72-.57-3.45-1.12-5.17-1.68-6.89-2.22-13.78-4.35-20.67-6.36-3.44-1.01-6.89-1.99-10.33-2.94-5.16-1.42-10.32-2.77-15.47-4.04-1.72-.42-3.43-.84-5.15-1.24-5.15-1.21-10.29-2.34-15.42-3.37-3.42-.69-6.84-1.33-10.26-1.93-5.12-.9-10.23-1.69-15.34-2.37-11.91-1.58-23.75-2.54-35.52-2.73-3.96-.07-7.87-.03-11.73,.1-3.86,.13-7.67,.35-11.45,.65-3.77,.3-7.5,.69-11.2,1.15-48.05,5.98-90.16,24.45-139.07,35.64-13.89,3.18-27.85,6.14-41.86,8.81-9.34,1.78-18.71,3.43-28.09,4.92-4.69,.74-9.39,1.45-14.09,2.11-4.7,.66-9.41,1.28-14.12,1.85-2.36,.29-4.71,.56-7.07,.82-4.72,.52-9.44,1-14.16,1.43-4.72,.43-9.45,.8-14.18,1.12-7.1,.48-14.2,.84-21.31,1.06-2.37,.07-4.74,.13-7.11,.18-4.74,.09-9.48,.12-14.23,.08-16.61-.13-33.23-1.05-49.86-2.91-4.48-.5-8.98-1.03-13.5-1.6-18.07-2.27-36.43-5.08-54.85-8.42-23.02-4.18-46.12-9.17-68.85-14.96-9.09-2.32-18.12-4.76-27.06-7.32-17.88-5.13-35.41-10.76-52.34-16.88-48.75-17.59-94.28-44.76-144.75-57.51-1.53-.39-3.06-.75-4.58-1.1-9.29-2.11-18.49-3.49-27.64-4.3-2.78-.25-5.55-.44-8.32-.59-3.11-.16-6.21-.27-9.3-.32-19.42-.3-38.73,1.52-58.24,3.91-4.51,.55-9.03,1.14-13.56,1.73-4.53,.59-9.08,1.2-13.66,1.8-3.05,.4-6.1,.79-9.17,1.18-1.85,.23-6.51,.82-13.27,1.67-1.69,.21-3.51,.44-5.45,.68-.97,.12-1.97,.24-3,.37-1.03,.13-2.08,.26-3.17,.39-1.08,.13-2.19,.27-3.33,.41-3.41,.42-7.04,.87-10.87,1.34-1.28,.16-2.57,.31-3.89,.47-3.29,.4-6.7,.82-10.22,1.24-.7,.08-1.41,.17-2.12,.26-1.42,.17-2.86,.34-4.31,.52-.73,.09-1.45,.17-2.19,.26-51.99,6.22-120.71,13.95-141.94,13.95-1.2,0-2.24-.02-3.12-.07-.44-.03-.84-.06-1.2-.1-.9-.1-1.53-.23-1.88-.42-.07-.04-.13-.08-.18-.12-.09-.08-.14-.17-.14-.26,0,0-.13,378.64-.03,513.51v514.08H1.03c0,22.02,0,44.93,0,64.1h-.07v100.51s52.29,33.42,151.18-14.59c32.42-15.74,68.4-22.02,101.3-36,31.71-13.48,62.74-24.32,97.19-28.47,58.96-7.09,120.14,2.4,173.62,28.44,40.75,19.84,79.93,41.62,121.93,58.81,41.07,16.81,87.9,16.9,132.07,16.06,107.15-2.04,209.67-32.65,314.92-44.42,94.6-10.58,203.2-19.72,293.99,15.48,10.22,3.96,52.83,19.97,54.47,32.97,0,0-.14-60.3-.28-123.89,.23,.33,.47,.66,.7,.99v-10.69c-.25-.41-.48-.83-.73-1.24-.05-19.93-.09-39.86-.13-58.06h.82v-211.76s.02,.09,.03,.13V645.18c-9.8-2.19-19.69-4.76-29.65-7.6Z"/>
</svg>