<?xml version="1.0" encoding="UTF-8"?>
<svg id="_圖層_3" data-name="圖層 3" xmlns="http://www.w3.org/2000/svg" viewBox="0 0 1440 1266.16">
  <defs>
    <style>
      .cls-1 {
        fill: none;
      }

      .cls-2 {
        fill: #984823;
      }

      .cls-3 {
        fill: #ba423a;
      }

      .cls-4 {
        fill: #ce9741;
      }

      .cls-5 {
        fill: #d09f5f;
      }

      .cls-6 {
        fill: #c79342;
      }

      .cls-7 {
        fill: #ad5322;
      }

      .cls-8 {
        fill: #2182c5;
      }
    </style>
  </defs>
  <path class="cls-1" d="M59.25,553.73c.39-4.62,.02-9.28,.02-13.91v-59.34c0-12.48-20.02-18.2-20.02-18.2,0,0-20.02,5.72-20.02,18.2v59.34c0,4.63-.38,9.29,.02,13.91,.34,4.03,1.97,7.71,3.43,11.44H55.83c1.45-3.73,3.08-7.4,3.43-11.44Z"/>
  <path class="cls-1" d="M49.69,922.95c4.68-18.54,9.35-37.08,14.03-55.62,4.88-19.34,9.16-38.97,14.8-58.1,6.99-23.72,17.53-48.08,10.39-73.1-2.44-8.56-6.58-16.68-12.16-23.64-.39-.48-7.34-7.62-7.34-7.65,10.91-21.59,3.94-46.47-16.59-60.01-1.03-.68-12.9-6.09-16.86-8-3.97,1.9-15.84,7.32-16.86,8-9.26,6.11-15.75,14.53-19.1,23.91v30.22c.69,1.98,1.53,3.95,2.51,5.89,0,.01-1.13,1.18-2.51,2.6v126.36c2.78,11.17,5.4,22.39,8.21,33.51,4.68,18.54,9.35,37.08,14.03,55.62,.44,1.75,4.86,24.87,6.31,25.02h14.83c1.45-.15,5.87-23.27,6.31-25.02Z"/>
  <path class="cls-1" d="M197.96,670.36l-111.8,232.95s-3.94,16.54,10.36,6.4l98.1-143.21s42.79-62.44,34.9-92.34c0,0-15.56-21.87-31.56-3.8Z"/>
  <path class="cls-3" d="M50.87,387.1c.11,.1,.21,.21,.32,.31-.13-.18-.25-.31-.32-.31Z"/>
  <path class="cls-4" d="M102.87,482.64c18.77,13.38,39.49,27.01,34.62,53.52-.77,4.19-7.37,23.98-13.76,29.01h58.41v1.65h0c11.02-7.65,22.97-18.27,27.75-31.2,8.93-24.15-25-36.99-40.46-46.35-22.8-13.8-44.78-29.18-63.74-48.01-16.15-16.04-32.3-32.11-48.59-48.05-1.97-1.93-3.95-3.87-5.92-5.8,2.83,3.94,18.57,48.01,21.29,53.44,7.54,15.08,16.4,31.81,30.39,41.79Z"/>
  <path class="cls-3" d="M50.87,387.1h-.54c.33,0,.53,0,.54,0Z"/>
  <path class="cls-2" d="M50.14,387.41h-10.89v74.88s20.02,5.72,20.02,18.2v59.34c0,4.63,.38,9.29-.02,13.91-.34,4.03-1.97,7.71-3.43,11.44H123.73c6.39-5.03,12.99-24.82,13.76-29.01,4.87-26.51-15.85-40.15-34.62-53.52-14-9.97-22.85-26.71-30.39-41.79-2.72-5.43-18.46-49.5-21.29-53.44-.11-.1-.21-.21-.32-.31,0,0-.21,0-.54,0l-.19,.32Z"/>
  <path class="cls-4" d="M6.02,440.85c2.72-5.43,18.46-49.5,21.29-53.44-1.97,1.93-3.95,3.87-5.92,5.8-7.15,7-14.27,14.03-21.39,21.07v38.17c2.13-3.88,4.12-7.79,6.02-11.59Z"/>
  <path class="cls-5" d="M0,452.44v112.73H22.67c-1.45-3.73-3.08-7.4-3.43-11.44-.39-4.62-.02-9.28-.02-13.91v-59.34c0-12.48,20.02-18.2,20.02-18.2v-74.88h-11.94c-2.83,3.94-18.57,48.01-21.29,53.44-1.9,3.8-3.89,7.71-6.02,11.59Z"/>
  <path class="cls-7" d="M97.57,566.34H55.38c.15-.39,.3-.78,.45-1.17H22.67c.15,.39,.3,.78,.45,1.17H0v30.56l35.93-.42h0s.04,0,.04,0h.02s0,0,0,0l99.56,.75c.11,.14,.21,.29,.32,.43l46.27,.54v-31.37H97.73l-.15-.48Z"/>
  <path class="cls-7" d="M123.73,565.17c-.94,.74-1.88,1.17-2.8,1.17h-23.36l.15,.48h84.42v-1.65h-58.41Z"/>
  <path class="cls-7" d="M97.57,566.34h23.36c.92,0,1.85-.43,2.8-1.17H55.83c-.15,.39-.3,.78-.45,1.17h42.19Z"/>
  <path class="cls-7" d="M22.67,565.17H0v1.17H23.12c-.15-.39-.3-.78-.45-1.17Z"/>
  <path class="cls-7" d="M28.36,387.09l1.57-.02c.31,0,.64,0,.99-.01h1.16c.13-.02,.26-.02,.4-.02l1.78-.02c2.61-.03,5-.06,5-.06,0,0,2.39,.03,5,.06l1.78,.02c.13,0,.26,0,.4,0h1.16c.35,.02,.68,.02,.99,.03l1.57,.02h.19s5.85-9.75,5.85-9.75H21.24l6.07,10.07c.11-.1,.21-.21,.32-.31,0,0,.28,0,.73,0Z"/>
  <path class="cls-7" d="M50.33,387.09h-.19c.07,0,.13,0,.19,0Z"/>
  <path class="cls-7" d="M50.33,387.09c-.06,0-.12,0-.19,0-.4,0-.93-.01-1.57-.02-.31,0-.64,0-.99-.01h-1.16c-.13-.02-.26-.02-.4-.02l-1.78-.02c-2.61-.03-5-.06-5-.06v.45h10.89l.19-.32Z"/>
  <path class="cls-7" d="M48.58,387.07c.63,0,1.17,.01,1.57,.02l-1.57-.02Z"/>
  <path class="cls-7" d="M39.25,386.95s-2.39,.03-5,.06l-1.78,.02c-.13,0-.26,0-.4,0h-1.16c-.35,.02-.68,.02-.99,.03l-1.57,.02c-.44,0-.73,0-.73,0-.11,.1-.21,.21-.32,.31h11.94v-.45Z"/>
  <polygon class="cls-6" points="39.25 351.51 21.24 377.34 56.19 377.34 39.25 351.51"/>
  <path class="cls-4" d="M270.72,656s-43.47-50.72-88.58-57.81h0s-45.85,0-45.85,0c20.14,25.99,33.19,59.84,18.41,90.97-10.61,22.33-21.14,44.7-31.95,66.94-14.74,30.34-25.18,62.6-34.05,95.08-4.13,15.12-8.04,30.18-10.54,45.67-.71,4.39-5.52,46.81-8.12,51.13h21.93s.97,0,.97,0c0,0,64.55-107.43,106.73-132.95,0,0,52.81-50.56,59.67-57.44,0,0,60.46-45.68,11.37-101.59Zm-76.09,110.51l-98.1,143.21c-14.3,10.14-10.36-6.4-10.36-6.4l111.8-232.95c16.01-18.07,31.56,3.8,31.56,3.8,7.89,29.9-34.9,92.34-34.9,92.34Z"/>
  <path class="cls-4" d="M136.29,598.19h45.85s-46.27-.54-46.27-.54c.14,.18,.28,.36,.42,.54Z"/>
  <path class="cls-8" d="M135.87,597.65c-.11-.14-.21-.29-.32-.43l-99.56-.75h0s99.88,1.17,99.88,1.17Z"/>
  <polygon class="cls-8" points="35.97 596.47 35.93 596.47 35.96 596.47 35.97 596.47"/>
  <path class="cls-2" d="M36.14,636.76c-.06,.03-.12,.06-.18,.09,3.97,1.9,15.84,7.32,16.86,8,20.53,13.54,27.51,38.43,16.59,60.01,0,.03,6.95,7.16,7.34,7.65,5.57,6.95,9.71,15.07,12.16,23.64,7.14,25.02-3.4,49.38-10.39,73.1-5.64,19.13-9.93,38.76-14.8,58.1-4.68,18.54-9.35,37.08-14.03,55.62-.44,1.75-4.86,24.87-6.31,25.02h26.67c2.6-4.31,7.41-46.74,8.12-51.13,2.5-15.48,6.41-30.55,10.54-45.67,8.87-32.48,19.31-64.74,34.05-95.08,10.81-22.24,21.34-44.6,31.95-66.94,14.78-31.13,1.73-64.98-18.41-90.97H36l.14,38.57Z"/>
  <path class="cls-2" d="M35.99,596.47v1.71h100.3c-.14-.18-.28-.36-.42-.54l-99.88-1.17Z"/>
  <polygon class="cls-2" points="35.93 596.47 35.93 596.47 35.96 596.47 35.93 596.47"/>
  <path class="cls-4" d="M0,940.87v7.1H1.88c-.55-.91-1.19-3.51-1.88-7.1Z"/>
  <path class="cls-5" d="M2.51,704.86c-.98-1.94-1.81-3.91-2.51-5.89v8.49c1.37-1.42,2.51-2.59,2.51-2.6Z"/>
  <path class="cls-5" d="M35.93,598.19H0v70.56c3.35-9.38,9.84-17.8,19.1-23.91,1.03-.68,12.9-6.09,16.86-8-.06-.03-.12-.06-.18-.09l.14-38.57Z"/>
  <path class="cls-5" d="M22.24,922.95c-4.68-18.54-9.35-37.08-14.03-55.62-2.81-11.13-5.42-22.35-8.21-33.51v107.05c.69,3.59,1.33,6.19,1.88,7.1H28.55c-1.45-.15-5.87-23.27-6.31-25.02Z"/>
  <polygon class="cls-5" points="35.99 596.47 35.97 596.47 35.99 596.47 35.99 596.47"/>
  <polygon class="cls-5" points="35.93 598.19 35.93 596.47 0 596.9 0 598.19 35.93 598.19"/>
  <rect class="cls-5" x="35.97" y="596.47" width=".03" height="0"/>
  <path class="cls-5" d="M35.78,636.76c.06,.03,.12,.06,.18,.09,.06-.03,.12-.06,.18-.09l-.14-38.57h-.08l-.14,38.57Z"/>
  <polygon class="cls-5" points="36 598.19 35.99 596.47 35.96 596.47 35.93 596.47 35.93 598.19 36 598.19"/>
  <path class="cls-7" d="M69.63,948.33s-.04,0-.08,0l-10.62,.16c-.24,0-.48,0-.73,.01l-5.44,.08-5.71,.09-2.57,.04c-.9,.01-1.1-.75-1.1-.75h-14.83s-.19,.76-1.1,.75l-2.57-.04c-1.85-.03-3.78-.06-5.71-.09l-5.44-.08c-.24,0-.49,0-.73-.01l-10.72-.17-2.28-.03v26.89H91.97v-27.2l-22.32,.34h-.02Z"/>
  <path class="cls-7" d="M52.76,948.59c-1.92,.03-3.86,.06-5.71,.09l5.71-.09Z"/>
  <path class="cls-7" d="M70.05,947.97c-.14,.23-.27,.36-.4,.36l22.32-.34h0s-21.93-.01-21.93-.01Z"/>
  <path class="cls-7" d="M69.63,948.33h-.08s.07,0,.08,0Z"/>
  <path class="cls-7" d="M44.47,948.72l2.57-.04c1.85-.03,3.78-.06,5.71-.09,1.85-.03,3.69-.06,5.44-.08,.24,0,.49,0,.73-.01,5.51-.08,9.95-.15,10.62-.16h.08s.02,0,.02,0h0c.12,0,.26-.13,.4-.36h-26.67s.19,.76,1.1,.75Z"/>
  <path class="cls-7" d="M58.2,948.51c-1.75,.03-3.59,.06-5.44,.08l5.44-.08Z"/>
  <path class="cls-7" d="M69.55,948.33c-.68,.01-5.12,.08-10.62,.16l10.62-.16Z"/>
  <polygon class="cls-7" points="69.63 948.33 69.65 948.33 69.65 948.33 69.63 948.33"/>
  <path class="cls-7" d="M1.88,947.97H0v.32l2.28,.03c-.12,0-.26-.13-.4-.36Z"/>
  <path class="cls-7" d="M2.28,948.33l10.72,.17c.24,0,.48,0,.73,.01l5.44,.08c1.92,.03,3.86,.06,5.71,.09l2.57,.04c.9,.01,1.1-.75,1.1-.75H1.88c.14,.23,.27,.36,.4,.36Z"/>
  <path class="cls-6" d="M0,975.19v61.95c11.7,5.97,25.28,14.35,26.89,21.72,0,0,10.4,11.27,0,22.57,0,0-13.58,19.59,9.72,20.31,23.3-.72,9.72-20.31,9.72-20.31-10.4-11.3,0-22.57,0-22.57,2.89-13.21,44.24-29.66,44.24-29.66,55.55-31.34,3.67-54.01,3.67-54.01H0Z"/>
</svg>