<?xml version="1.0" encoding="UTF-8"?>
<svg id="_圖層_1" data-name="圖層 1" xmlns="http://www.w3.org/2000/svg" viewBox="0 0 725.05 758.66">
  <defs>
    <style>
      .cls-1 {
        fill: none;
      }

      .cls-2 {
        fill: #4e5c2f;
      }
    </style>
  </defs>
  <path class="cls-1" d="M554.18,493.19c.7-11.42,7.66-21.06,14.42-30.88,2.91-4.22,6.27-5.53,9.99-4.01,1.26,.55,2.56,1.43,3.9,2.63,4.24,3.81,7.65,8.1,11.83,11.94,3.11,2.85,7.48,7.79,10.29,8.58,.45,.15,.87,.23,1.23,.16,5.68-1.01,8.9-.96,10.63-.24,3.7,1.72-.25,6.82-1.04,10.77-1.05,5.27-2.45,12.29,4.7,14.46,.04,.01,.08,.02,.12,.03,.03,0,.05,.03,.08,.04,8.85,2.69,11.02-4.85,14.68-9.03,1.68-1.92,2.98-4.75,6.09-3.66,.44,.18,.92,.42,1.44,.77,1.75,1.16,2.6,3.55,3.82,3.88,.91,.42,1.99-.26,3.82-3.55,.51-.92,1.45-1.13,2.43-.91,1.61,.45,3.29,1.97,3.46,3.36,.4,3.34-.09,6.8-.84,10.13-.94,4.19-.43,6.68,2.57,7.39,1.77,.49,4.44,.32,8.32-.55,9.88-2.23,20.39-2.98,30.54-4.64,4.76-.77,11.99,1.67,13.74-2.89,1.43-3.72-4.47-6.44-7.82-9.27-22.52-18.98-48.6-32.97-77.83-42.64-22.71-7.53-47.33-12.45-73.67-15.07-29.13-2.89-51.09,3.93-65.55,22.68-7.41,9.61-16.6,18.27-28.54,28.49,.08,0,.16,.02,.24,.03-.01,.01-.03,.02-.04,.03,21.84,2.45,40.72,7.38,59.07,13.25,2.56,.82,5.12,1.66,7.66,2.51,0,0,0,0,.01,0,.06,.02,.13,.04,.19,.06,6.35,2.12,13.39,1.36,19.06-1.14,6.11-2.69,10.65-7.38,10.97-12.72Z"/>
  <path class="cls-1" d="M554.18,493.19c.7-11.42,7.66-21.06,14.42-30.88,2.91-4.22,6.27-5.53,9.99-4.01,1.26,.55,2.56,1.43,3.9,2.63,4.24,3.81,7.65,8.1,11.83,11.94,3.11,2.85,7.48,7.79,10.29,8.58,.45,.15,.87,.23,1.23,.16,5.68-1.01,8.9-.96,10.63-.24,3.7,1.72-.25,6.82-1.04,10.77-1.05,5.27-2.45,12.29,4.7,14.46,.04,.01,.08,.02,.12,.03,.03,0,.05,.03,.08,.04,8.85,2.69,11.02-4.85,14.68-9.03,1.68-1.92,2.98-4.75,6.09-3.66,.44,.18,.92,.42,1.44,.77,1.75,1.16,2.6,3.55,3.82,3.88,.91,.42,1.99-.26,3.82-3.55,.51-.92,1.45-1.13,2.43-.91,1.61,.45,3.29,1.97,3.46,3.36,.4,3.34-.09,6.8-.84,10.13-.94,4.19-.43,6.68,2.57,7.39,1.77,.49,4.44,.32,8.32-.55,9.88-2.23,20.39-2.98,30.54-4.64,4.76-.77,11.99,1.67,13.74-2.89,1.43-3.72-4.47-6.44-7.82-9.27-22.52-18.98-48.6-32.97-77.83-42.64-22.71-7.53-47.33-12.45-73.67-15.07-29.13-2.89-51.09,3.93-65.55,22.68-7.41,9.61-16.6,18.27-28.54,28.49,.08,0,.16,.02,.24,.03-.01,.01-.03,.02-.04,.03,21.84,2.45,40.72,7.38,59.07,13.25,2.56,.82,5.12,1.66,7.66,2.51,0,0,0,0,.01,0,.06,.02,.13,.04,.19,.06,6.35,2.12,13.39,1.36,19.06-1.14,6.11-2.69,10.65-7.38,10.97-12.72Z"/>
  <path class="cls-1" d="M719.63,556.39c.51,1.94,2.76,3.75,5.42,5.58v-12.17c-4.63,2.44-5.95,4.58-5.42,6.59Z"/>
  <path class="cls-1" d="M718.6,521.65c-5.57-2.03-12.45-1.13-16.93,.88-8.88,3.99,1.39,8.2,4.68,11.52,2.67,2.69,6.03,5.07,10.12,6.58,2.4,.91,5.07,1.51,7.99,1.68,.21,.01,.39,.03,.59,.05v-16.13c-1.67-2.23-3.93-3.7-6.45-4.58Z"/>
  <path class="cls-2" d="M716.96,136.31c-2.16-18.93-5.9-37.75-20.2-54.34-22.99-26.68-53.34-49.44-76.99-75.79-.55-.62-1.48-1.06-2.24-1.58-8.44-5.83-16.36-6.54-22.87,.27-.37,.4-.75,.82-1.11,1.28-9.71,12.09-19.32,24.28-25.65,37.57-3.98,8.36-3.96,16.86-1.77,25.75,5.08,20.64,17.1,39.78,23.24,60.16,10.61,35.27,24.55,69.9,46.92,102.2,23.78,34.32,39.17,71.01,59.73,106.22,1.78,3.05,2.81,6.64,2.6,9.93-2.16,32.97,8.11,63.67,26.44,93.02V172.58c-3.51-11.97-6.69-23.99-8.09-36.27Z"/>
  <path class="cls-2" d="M719.2,442.88c-24.98-34.72-66.04-60.27-96.78-91.67-9.1-9.3-19.94-17.74-21.85-29.53-6.53-40.43-70.98-63.49-114.67-70.54-28.72-4.63-56.91-12.58-87.34-10.85-4.81,.27-9.84-2.31-14.89-3.27-7.05-1.33-14.24-3.46-21.31-3.35-32.35,.51-64.38-3.11-96.54-4.37-27.6-1.09-52.71,1.34-77.97,8.14-10.73,2.89-21.79,6.33-32.96,6.92-31.5,1.68-57.06,11.38-78.21,27.71-16.07,12.4-37.5,20.5-51.16,34.99-1.88,2.02-3.62,4.16-5.17,6.45C-.35,344.26,.54,376.42,3.33,409.03c.36,4.2,3.87,7.56,9.32,8.23,19.03,2.36,39.75,6.1,54.66-5.84,25.71-20.58,60.72-30.28,92.05-44.27,10.6-4.74,22.46-5.43,34.78-4.84,30.7,1.47,61.31-.06,91.96-1.71,8.8-.47,14.13-2.7,17.7-6.52,2.08-2.3,3.56-5.16,4.78-8.55,4.03-11.24,7.84-22.78,17.96-33.98,1.47-1.64,3.06-3.27,4.81-4.89,.41,16.06,8.17,29.66,.57,43.6-5.45,9.99,.26,12.82,13.87,12.06,8.5-.48,19.07-2.8,25.36,2.69,8.36,7.3,18.05,6.12,28.46,5.21,7.23-.63,14.53-.89,21.76-1.52,17.75-1.53,33.81,3.6,50.51,6.4,32.59,5.46,64.03,1.2,95.38-6,24.23-5.57,47.21-4.16,66.63,10,15.48,11.29,30.59,22.77,44.42,35.15,19.66,17.6,34.93,36.82,46.74,57.31v-20.23c-1.91-2.82-3.84-5.64-5.85-8.43Z"/>
  <path class="cls-2" d="M719.63,556.39h0c-33.07-24.56-142.93-44.77-176.42-50.49-5.68,2.5-12.72,3.26-19.06,1.14-.06-.02-.13-.04-.19-.06,0,0,0,0-.01,0-2.55-.85-5.1-1.69-7.66-2.51-18.35-5.87-37.23-10.8-59.07-13.25,.01-.01,.03-.02,.04-.03-.08,0-.16-.02-.24-.03,11.93-10.23,21.13-18.89,28.54-28.49,14.46-18.75,36.42-25.57,65.55-22.68,26.34,2.62,50.96,7.54,73.67,15.07,29.23,9.67,55.31,23.66,77.83,42.64,3.36,2.83,9.26,5.55,7.82,9.27-1.76,4.56-8.99,2.12-13.74,2.89-10.16,1.65-20.66,2.4-30.54,4.64-3.88,.88-6.55,1.04-8.32,.55-3-.71-3.51-3.2-2.57-7.39,.75-3.33,1.24-6.79,.84-10.13-.16-1.38-1.84-2.9-3.46-3.36-.99-.22-1.92-.02-2.43,.91-1.83,3.3-2.92,3.98-3.82,3.55-1.22-.33-2.07-2.72-3.82-3.88-.52-.35-1-.59-1.44-.77-3.11-1.09-4.41,1.75-6.09,3.66-3.66,4.18-5.82,11.73-14.68,9.03-.03,0-.05-.03-.08-.04-.04-.01-.08-.02-.12-.03-7.15-2.18-5.75-9.19-4.7-14.46,.79-3.94,4.73-9.05,1.04-10.77-1.73-.71-4.95-.77-10.63,.24-.37,.07-.79-.01-1.23-.16-2.81-.79-7.18-5.73-10.29-8.58-4.19-3.84-7.59-8.13-11.83-11.94-1.34-1.2-2.64-2.08-3.9-2.63-3.71-1.52-7.08-.22-9.99,4.01-6.76,9.82-13.72,19.46-14.42,30.88-.33,5.33-4.86,10.03-10.97,12.72,33.49,5.71,143.34,25.93,176.42,50.49h0c-.53-2,.79-4.15,5.42-6.59v-7.44c-.2-.02-.38-.04-.59-.05-2.93-.17-5.59-.77-7.99-1.68-4.09-1.51-7.45-3.89-10.12-6.58-3.29-3.32-13.57-7.53-4.68-11.52,4.48-2.01,11.36-2.91,16.93-.88,2.52,.88,4.79,2.36,6.45,4.58v-25.13c-3.18-4.84-6.86-9.45-11.94-13.37-43.31-33.33-96.82-52.73-159.25-56.91-30.55-2.05-56.82-7.83-79.3-23.14-13.15-8.95-29.39-12.49-47.7-11.01-11.33,.92-23.06,2.95-34.14,.07-31.85-8.28-60.35-4.24-89.86,7.53-22.92,9.14-42.77,22.28-70.44,26.07-43.36,5.93-76.44,23.81-101.66,50.73-15.11,16.13-30.45,32.53-50.73,45.97-14.11,9.35-26.17,19.44-35.81,30.39-16.06,18.34-25.31,39.09-25.93,62.87-.1,3.98-2.67,8.07-4.91,11.85-21.75,36.7-13.08,73.61-1.41,110.48,1.25,3.94,4.87,7.52,7.63,11.17,4.72,6.26,9.84,6.14,17.33,1.57,20.44-12.48,39.52-25.54,53.81-41.46,6.46-7.23,11.93-15.05,16.09-23.68,2.25-4.67,4.12-7.67,6.2-9.86,3.48-3.78,7.48-5.19,14.78-8.26-14.48,20-21.43,40.49-24.15,61.76-2.42,18.94,1.25,22.72,26.83,19.64,24.41-2.93,48.56-3.81,72.8-1.95,10.25,.79,16.76-1.29,20.97-5.88,1.35-1.53,2.47-3.31,3.39-5.36,3.16-7.06,7.61-13.46,13.13-19.34,5.54-5.94,12.16-11.34,19.66-16.36,5.61-3.75,10.2-8.04,14.21-12.61,4.02-4.6,7.47-9.48,10.79-14.38,2.86-4.22,6-8.23,9.45-12.03,10.28-11.38,23.36-20.82,40.31-27.89,24.41-10.17,42.81-24.67,59.34-41.24,15.53-15.56,33.97-29.83,61.12-35.52,20.34-4.26,37.69-12.78,55.63-20.49,4.2-1.8,7.36-5.5,14.33-4.24-.01,.07-.02,.14-.04,.2,98.83-16.01,149.16,19.55,152.28,21.84,.12-.04,.24-.07,.36-.11,9.87-3.44,18.24-.63,24.22,3.97,7.81,6.01,15.52,12.06,22.62,18.35v-18.49c-2.66-1.83-4.91-3.64-5.42-5.58Z"/>
</svg>